<svg width="41" height="21" viewBox="0 0 41 21" fill="none" xmlns="http://www.w3.org/2000/svg">
<rect x="0.3" y="0.3" width="40.4" height="20.4" rx="10.2" fill="#ECF3FF"/>
<rect x="0.3" y="0.3" width="40.4" height="20.4" rx="10.2" stroke="#3280FF" stroke-width="0.6"/>
<path d="M16.64 11.12C16.58 11.52 16.4633 11.8767 16.29 12.19C16.1167 12.5033 15.9 12.7667 15.64 12.98C15.38 13.1867 15.0867 13.3433 14.76 13.45C14.44 13.5633 14.1 13.62 13.74 13.62C13.2667 13.62 12.8333 13.5333 12.44 13.36C12.0533 13.1933 11.72 12.9467 11.44 12.62C11.1667 12.2867 10.9533 11.88 10.8 11.4C10.6467 10.92 10.57 10.37 10.57 9.75C10.57 9.13667 10.6467 8.59 10.8 8.11C10.9533 7.63 11.1667 7.22667 11.44 6.9C11.72 6.56667 12.0533 6.31667 12.44 6.15C12.8333 5.97667 13.2667 5.89 13.74 5.89C14.1 5.89 14.44 5.94667 14.76 6.06C15.0867 6.16667 15.38 6.32667 15.64 6.54C15.9 6.74667 16.1167 7.00667 16.29 7.32C16.4633 7.62667 16.58 7.98 16.64 8.38H15.59C15.4967 7.86 15.28 7.46667 14.94 7.2C14.6 6.92667 14.2 6.79 13.74 6.79C13.0733 6.79 12.5533 7.05 12.18 7.57C11.8067 8.08333 11.62 8.81 11.62 9.75C11.62 10.69 11.8067 11.42 12.18 11.94C12.5533 12.46 13.0733 12.72 13.74 12.72C14.2 12.72 14.6 12.5833 14.94 12.31C15.28 12.0367 15.4967 11.64 15.59 11.12H16.64ZM22.0505 8.31C22.0505 7.83667 21.9005 7.46667 21.6005 7.2C21.3072 6.92667 20.9005 6.79 20.3805 6.79C19.8405 6.79 19.4305 6.89667 19.1505 7.11C18.8772 7.32333 18.7405 7.59 18.7405 7.91C18.7405 8.24333 18.8839 8.51333 19.1705 8.72C19.4639 8.92 19.9239 9.10333 20.5505 9.27C20.9705 9.39 21.3405 9.52 21.6605 9.66C21.9872 9.8 22.2605 9.96333 22.4805 10.15C22.7005 10.33 22.8672 10.5367 22.9805 10.77C23.0939 11.0033 23.1505 11.27 23.1505 11.57C23.1505 11.89 23.0805 12.18 22.9405 12.44C22.8072 12.6933 22.6205 12.9067 22.3805 13.08C22.1405 13.2533 21.8539 13.3867 21.5205 13.48C21.1872 13.5733 20.8205 13.62 20.4205 13.62C20.0472 13.62 19.6839 13.5733 19.3305 13.48C18.9772 13.3933 18.6605 13.2533 18.3805 13.06C18.1005 12.8667 17.8739 12.6167 17.7005 12.31C17.5339 11.9967 17.4505 11.62 17.4505 11.18H18.5105C18.5105 11.48 18.5672 11.73 18.6805 11.93C18.7939 12.13 18.9405 12.29 19.1205 12.41C19.3005 12.53 19.5039 12.6133 19.7305 12.66C19.9572 12.7067 20.1872 12.73 20.4205 12.73C20.9339 12.73 21.3405 12.63 21.6405 12.43C21.9472 12.2233 22.1005 11.94 22.1005 11.58C22.1005 11.4067 22.0705 11.2533 22.0105 11.12C21.9505 10.9867 21.8472 10.8633 21.7005 10.75C21.5539 10.6367 21.3605 10.5333 21.1205 10.44C20.8872 10.34 20.5972 10.24 20.2505 10.14C19.8639 10.0333 19.5139 9.92 19.2005 9.8C18.8872 9.67333 18.6172 9.52667 18.3905 9.36C18.1705 9.18667 17.9972 8.98667 17.8705 8.76C17.7505 8.52667 17.6905 8.25 17.6905 7.93C17.6905 7.62333 17.7572 7.34667 17.8905 7.1C18.0239 6.84667 18.2072 6.63 18.4405 6.45C18.6805 6.27 18.9639 6.13333 19.2905 6.04C19.6239 5.94 19.9872 5.89 20.3805 5.89C20.8005 5.89 21.1772 5.95 21.5105 6.07C21.8505 6.19 22.1372 6.36 22.3705 6.58C22.6105 6.79333 22.7905 7.05 22.9105 7.35C23.0372 7.64333 23.1005 7.96333 23.1005 8.31H22.0505ZM27.4147 13.52H26.5247L23.6747 5.98H24.7947L26.7547 11.36L26.9347 11.99H27.0047L27.1847 11.36L29.1747 5.98H30.2947L27.4147 13.52Z" fill="#3280FF"/>
</svg>
