<svg width="47" height="21" viewBox="0 0 47 21" fill="none" xmlns="http://www.w3.org/2000/svg">
<rect x="0.3" y="0.3" width="46.4" height="20.4" rx="10.2" fill="#F0F0F0"/>
<rect x="0.3" y="0.3" width="46.4" height="20.4" rx="10.2" stroke="#959595" stroke-width="0.6"/>
<path d="M17.84 14.36H16.79V5.42H17.84V14.36ZM15.23 12.67H10.88V5.84H11.93V8.37H14.18V5.84H15.23V12.67ZM14.18 11.77V9.26H11.93V11.77H14.18ZM26.5602 14.3H20.3602V12.24H25.3102V11.71H20.3602V10.93H26.3602V12.96H21.4102V13.51H26.5602V14.3ZM24.9802 10.21C24.6802 10.2567 24.3669 10.2933 24.0402 10.32C23.7136 10.3467 23.3802 10.37 23.0402 10.39C22.7069 10.4033 22.3736 10.4133 22.0402 10.42C21.7069 10.4267 21.3836 10.43 21.0702 10.43H19.0102V9.65H21.3502V9.15C20.8102 9.09667 20.3836 8.96667 20.0702 8.76C19.7569 8.55333 19.6002 8.28 19.6002 7.94C19.6002 7.74667 19.6536 7.57333 19.7602 7.42C19.8669 7.26667 20.0169 7.14 20.2102 7.04C20.4102 6.93333 20.6469 6.85333 20.9202 6.8C21.2002 6.74 21.5102 6.71 21.8502 6.71C22.1902 6.71 22.4969 6.74 22.7702 6.8C23.0502 6.85333 23.2869 6.93333 23.4802 7.04C23.6802 7.14 23.8336 7.26667 23.9402 7.42C24.0469 7.57333 24.1002 7.74667 24.1002 7.94C24.1002 8.28 23.9502 8.55333 23.6502 8.76C23.3502 8.96 22.9402 9.08667 22.4202 9.14V9.64C22.8936 9.62667 23.3436 9.61 23.7702 9.59C24.1969 9.56333 24.6002 9.52333 24.9802 9.47V10.21ZM26.3802 10.54H25.3302V5.42H26.3802V7.42H27.4502V8.34H26.3802V10.54ZM24.4702 6.48H19.2402V5.7H21.3302V4.98H22.3802V5.7H24.4702V6.48ZM21.8502 8.43C22.6502 8.43 23.0502 8.26667 23.0502 7.94C23.0502 7.62 22.6502 7.46 21.8502 7.46C21.4569 7.46 21.1569 7.5 20.9502 7.58C20.7502 7.66 20.6502 7.78 20.6502 7.94C20.6502 8.1 20.7502 8.22333 20.9502 8.31C21.1569 8.39 21.4569 8.43 21.8502 8.43ZM35.2505 13.48C35.0905 13.7267 34.8671 13.93 34.5805 14.09C34.2938 14.2567 33.9505 14.38 33.5505 14.46C33.1505 14.54 32.7138 14.58 32.2405 14.58C31.7671 14.58 31.3305 14.54 30.9305 14.46C30.5371 14.38 30.1971 14.2567 29.9105 14.09C29.6238 13.93 29.4005 13.7267 29.2405 13.48C29.0805 13.24 29.0005 12.9533 29.0005 12.62C29.0005 12.2933 29.0805 12.0067 29.2405 11.76C29.4005 11.5133 29.6238 11.31 29.9105 11.15C30.1971 10.9833 30.5371 10.86 30.9305 10.78C31.3305 10.7 31.7671 10.66 32.2405 10.66C32.7138 10.66 33.1505 10.7 33.5505 10.78C33.9505 10.86 34.2938 10.9833 34.5805 11.15C34.8671 11.31 35.0905 11.5133 35.2505 11.76C35.4105 12.0067 35.4905 12.2933 35.4905 12.62C35.4905 12.9533 35.4105 13.24 35.2505 13.48ZM32.8505 10.17C32.3638 9.91667 31.9271 9.61333 31.5405 9.26C31.1605 8.9 30.8538 8.51333 30.6205 8.1C30.4071 8.52 30.0971 8.93333 29.6905 9.34C29.2905 9.74667 28.8038 10.11 28.2305 10.43C28.1238 10.31 28.0171 10.1933 27.9105 10.08C27.8038 9.96 27.6938 9.84 27.5805 9.72C27.9538 9.52667 28.2905 9.30667 28.5905 9.06C28.8971 8.80667 29.1571 8.54 29.3705 8.26C29.5838 7.98 29.7471 7.68667 29.8605 7.38C29.9805 7.07333 30.0405 6.77 30.0405 6.47V5.62H31.1405V6.47C31.1405 6.77667 31.2005 7.07333 31.3205 7.36C31.4405 7.64667 31.6005 7.91667 31.8005 8.17C32.0071 8.42333 32.2471 8.65667 32.5205 8.87C32.7938 9.07667 33.0838 9.25667 33.3905 9.41L32.8505 10.17ZM33.8605 13.42C34.2338 13.2467 34.4205 12.98 34.4205 12.62C34.4205 12.26 34.2338 11.9933 33.8605 11.82C33.4871 11.64 32.9471 11.55 32.2405 11.55C31.5338 11.55 30.9938 11.64 30.6205 11.82C30.2538 11.9933 30.0705 12.26 30.0705 12.62C30.0705 12.98 30.2538 13.2467 30.6205 13.42C30.9938 13.6 31.5338 13.69 32.2405 13.69C32.9471 13.69 33.4871 13.6 33.8605 13.42ZM35.3205 10.56H34.2705V7.9H32.5405V7H34.2705V5.42H35.3205V10.56Z" fill="#959595"/>
</svg>
