<svg width="38" height="21" viewBox="0 0 38 21" fill="none" xmlns="http://www.w3.org/2000/svg">
<rect x="0.3" y="0.3" width="37.4" height="20.4" rx="10.2" fill="#EFFDF4"/>
<rect x="0.3" y="0.3" width="37.4" height="20.4" rx="10.2" stroke="#05CB45" stroke-width="0.6"/>
<path d="M17.82 14.3H11.62V12.24H16.57V11.71H11.62V10.93H17.62V12.96H12.67V13.51H17.82V14.3ZM16.24 10.21C15.94 10.2567 15.6267 10.2933 15.3 10.32C14.9733 10.3467 14.64 10.37 14.3 10.39C13.9667 10.4033 13.6333 10.4133 13.3 10.42C12.9667 10.4267 12.6433 10.43 12.33 10.43H10.27V9.65H12.61V9.15C12.07 9.09667 11.6433 8.96667 11.33 8.76C11.0167 8.55333 10.86 8.28 10.86 7.94C10.86 7.74667 10.9133 7.57333 11.02 7.42C11.1267 7.26667 11.2767 7.14 11.47 7.04C11.67 6.93333 11.9067 6.85333 12.18 6.8C12.46 6.74 12.77 6.71 13.11 6.71C13.45 6.71 13.7567 6.74 14.03 6.8C14.31 6.85333 14.5467 6.93333 14.74 7.04C14.94 7.14 15.0933 7.26667 15.2 7.42C15.3067 7.57333 15.36 7.74667 15.36 7.94C15.36 8.28 15.21 8.55333 14.91 8.76C14.61 8.96 14.2 9.08667 13.68 9.14V9.64C14.1533 9.62667 14.6033 9.61 15.03 9.59C15.4567 9.56333 15.86 9.52333 16.24 9.47V10.21ZM17.64 10.54H16.59V5.42H17.64V7.42H18.71V8.34H17.64V10.54ZM15.73 6.48H10.5V5.7H12.59V4.98H13.64V5.7H15.73V6.48ZM13.11 8.43C13.91 8.43 14.31 8.26667 14.31 7.94C14.31 7.62 13.91 7.46 13.11 7.46C12.7167 7.46 12.4167 7.5 12.21 7.58C12.01 7.66 11.91 7.78 11.91 7.94C11.91 8.1 12.01 8.22333 12.21 8.31C12.4167 8.39 12.7167 8.43 13.11 8.43ZM26.5102 13.48C26.3502 13.7267 26.1269 13.93 25.8402 14.09C25.5536 14.2567 25.2102 14.38 24.8102 14.46C24.4102 14.54 23.9736 14.58 23.5002 14.58C23.0269 14.58 22.5902 14.54 22.1902 14.46C21.7969 14.38 21.4569 14.2567 21.1702 14.09C20.8836 13.93 20.6602 13.7267 20.5002 13.48C20.3402 13.24 20.2602 12.9533 20.2602 12.62C20.2602 12.2933 20.3402 12.0067 20.5002 11.76C20.6602 11.5133 20.8836 11.31 21.1702 11.15C21.4569 10.9833 21.7969 10.86 22.1902 10.78C22.5902 10.7 23.0269 10.66 23.5002 10.66C23.9736 10.66 24.4102 10.7 24.8102 10.78C25.2102 10.86 25.5536 10.9833 25.8402 11.15C26.1269 11.31 26.3502 11.5133 26.5102 11.76C26.6702 12.0067 26.7502 12.2933 26.7502 12.62C26.7502 12.9533 26.6702 13.24 26.5102 13.48ZM24.1102 10.17C23.6236 9.91667 23.1869 9.61333 22.8002 9.26C22.4202 8.9 22.1136 8.51333 21.8802 8.1C21.6669 8.52 21.3569 8.93333 20.9502 9.34C20.5502 9.74667 20.0636 10.11 19.4902 10.43C19.3836 10.31 19.2769 10.1933 19.1702 10.08C19.0636 9.96 18.9536 9.84 18.8402 9.72C19.2136 9.52667 19.5502 9.30667 19.8502 9.06C20.1569 8.80667 20.4169 8.54 20.6302 8.26C20.8436 7.98 21.0069 7.68667 21.1202 7.38C21.2402 7.07333 21.3002 6.77 21.3002 6.47V5.62H22.4002V6.47C22.4002 6.77667 22.4602 7.07333 22.5802 7.36C22.7002 7.64667 22.8602 7.91667 23.0602 8.17C23.2669 8.42333 23.5069 8.65667 23.7802 8.87C24.0536 9.07667 24.3436 9.25667 24.6502 9.41L24.1102 10.17ZM25.1202 13.42C25.4936 13.2467 25.6802 12.98 25.6802 12.62C25.6802 12.26 25.4936 11.9933 25.1202 11.82C24.7469 11.64 24.2069 11.55 23.5002 11.55C22.7936 11.55 22.2536 11.64 21.8802 11.82C21.5136 11.9933 21.3302 12.26 21.3302 12.62C21.3302 12.98 21.5136 13.2467 21.8802 13.42C22.2536 13.6 22.7936 13.69 23.5002 13.69C24.2069 13.69 24.7469 13.6 25.1202 13.42ZM26.5802 10.56H25.5302V7.9H23.8002V7H25.5302V5.42H26.5802V10.56Z" fill="#05CB45"/>
</svg>
