<svg width="16" height="16" viewBox="0 0 16 16" fill="none" xmlns="http://www.w3.org/2000/svg">
<path d="M2.34945 4.10034H9.34958C10.3161 4.10034 11.0996 4.88382 11.0996 5.8503V12.8501C11.0996 13.8166 10.3161 14.6001 9.34958 14.6001H2.34945C1.38293 14.6001 0.599418 13.8166 0.599418 12.8501V5.8503C0.599418 4.88382 1.38293 4.10034 2.34945 4.10034Z" stroke="#43414F" stroke-width="1.2" stroke-linecap="round" stroke-linejoin="round"/>
<path d="M4.09942 4.10001V2.35005C4.09942 1.88594 4.2838 1.44083 4.61199 1.11265C4.94019 0.784467 5.38531 0.600098 5.84945 0.600098H12.8496C13.3137 0.600098 13.7588 0.784467 14.087 1.11265C14.4152 1.44083 14.5996 1.88594 14.5996 2.35005V9.34987C14.5996 9.81399 14.4152 10.2591 14.087 10.5873C13.7588 10.9155 13.3137 11.0998 12.8496 11.0998H11.0995" stroke="#43414F" stroke-width="1.2" stroke-linecap="round" stroke-linejoin="round"/>
</svg>
