<svg width="3" height="15" viewBox="0 0 3 15" fill="none" xmlns="http://www.w3.org/2000/svg">
<path d="M1.25 7.75C1.5261 7.75 1.75 7.5261 1.75 7.25C1.75 6.9739 1.5261 6.75 1.25 6.75C0.9739 6.75 0.75 6.9739 0.75 7.25C0.75 7.5261 0.9739 7.75 1.25 7.75Z" fill="#43414F" stroke="#43414F" stroke-width="1.5" stroke-linecap="round" stroke-linejoin="round"/>
<path d="M1.25 13.75C1.5261 13.75 1.75 13.5261 1.75 13.25C1.75 12.9739 1.5261 12.75 1.25 12.75C0.9739 12.75 0.75 12.9739 0.75 13.25C0.75 13.5261 0.9739 13.75 1.25 13.75Z" fill="#43414F" stroke="#43414F" stroke-width="1.5" stroke-linecap="round" stroke-linejoin="round"/>
<path d="M1.25 1.75C1.5261 1.75 1.75 1.52614 1.75 1.25C1.75 0.97386 1.5261 0.75 1.25 0.75C0.9739 0.75 0.75 0.97386 0.75 1.25C0.75 1.52614 0.9739 1.75 1.25 1.75Z" fill="#43414F" stroke="#43414F" stroke-width="1.5" stroke-linecap="round" stroke-linejoin="round"/>
</svg>
