<svg width="14" height="14" viewBox="0 0 14 14" fill="none" xmlns="http://www.w3.org/2000/svg">
<path d="M2.26664 3.78223H8.33223C9.16972 3.78223 9.84863 4.46103 9.84863 5.29838V11.363C9.84863 12.2004 9.16972 12.8792 8.33223 12.8792H2.26664C1.42915 12.8792 0.750239 12.2004 0.750239 11.363V5.29838C0.750239 4.46103 1.42915 3.78223 2.26664 3.78223Z" stroke="#7E22CE" stroke-width="1.5" stroke-linecap="round" stroke-linejoin="round"/>
<path d="M3.78149 3.78231V2.26616C3.78149 1.86405 3.94125 1.47841 4.22563 1.19407C4.51001 0.909737 4.89571 0.75 5.29789 0.75H11.3635C11.7657 0.75 12.1514 0.909737 12.4357 1.19407C12.7201 1.47841 12.8799 1.86405 12.8799 2.26616V8.33078C12.8799 8.73289 12.7201 9.11853 12.4357 9.40286C12.1514 9.6872 11.7657 9.84693 11.3635 9.84693H9.84708" stroke="#7E22CE" stroke-width="1.5" stroke-linecap="round" stroke-linejoin="round"/>
</svg>
